<svg width="40" height="41" viewBox="0 0 40 41" fill="none" xmlns="http://www.w3.org/2000/svg">
<g id="Buddha">
<path id="Vector" d="M23.85 16.9317C23.7091 16.9309 23.5725 16.8812 23.4625 16.7908C22.5 16.0156 22.375 15.6569 22.4563 14.8369V14.5165C22.5353 13.8508 22.7167 13.2022 22.9938 12.5947C23.1033 12.3324 23.1952 12.0627 23.2688 11.7875C23.2688 11.8259 23.3375 11.7875 23.3813 11.7875C23.3005 11.7597 23.2261 11.7152 23.1627 11.6568C23.0992 11.5984 23.0482 11.5273 23.0125 11.448C22.9781 11.3671 22.9604 11.2799 22.9604 11.1917C22.9604 11.1035 22.9781 11.0163 23.0125 10.9355C23.144 10.3971 23.144 9.83381 23.0125 9.29545C22.8188 8.33452 21.5438 7.87967 21.5313 7.87967C21.4158 7.84024 21.3141 7.7671 21.2386 7.66922C21.1631 7.57135 21.1171 7.45301 21.1063 7.32874C21.0125 6.40624 20.625 6.18842 20.625 6.18202C20.5033 6.14021 20.3983 6.0587 20.3261 5.94996C20.2539 5.84121 20.2184 5.71121 20.225 5.57983V4.9392C20.2256 4.83892 20.2492 4.74018 20.2938 4.65092C20.3306 4.08357 20.2297 3.5157 20 2.99811C19.7654 3.52299 19.6685 4.10152 19.7188 4.67655C19.7612 4.76634 19.7826 4.86506 19.7813 4.96483V5.60545C19.7884 5.74515 19.7507 5.8834 19.674 5.99908C19.5972 6.11475 19.4856 6.20151 19.3563 6.24608C19.3563 6.24608 18.9875 6.44467 18.9 7.38639C18.8887 7.51144 18.8418 7.63033 18.7652 7.72829C18.6885 7.82624 18.5854 7.89893 18.4688 7.93733C18.4688 7.93733 17.1813 8.39217 16.9938 9.35311C16.8517 9.89315 16.841 10.4607 16.9625 11.0059C17.017 11.1485 17.0198 11.3064 16.9705 11.4509C16.9212 11.5955 16.8231 11.7172 16.6938 11.7939C16.6921 11.8131 16.6921 11.8324 16.6938 11.8515C16.7666 12.1249 16.8585 12.3925 16.9688 12.6523C17.2416 13.2615 17.4228 13.9094 17.5063 14.5742V14.8945C17.5875 15.7145 17.4625 16.0669 16.5 16.8484C16.4356 16.9006 16.3618 16.9392 16.2828 16.9621C16.2038 16.9851 16.1212 16.9918 16.0396 16.982C15.8749 16.9622 15.7247 16.8761 15.6219 16.7427C15.5191 16.6093 15.4723 16.4396 15.4916 16.2708C15.5109 16.102 15.5949 15.948 15.725 15.8426C16.2938 15.3814 16.2938 15.3814 16.2625 15.029V14.6447C16.1822 14.1216 16.0307 13.6127 15.8125 13.1328C15.6694 12.7997 15.5544 12.4546 15.4688 12.1014C15.4248 11.9153 15.4205 11.7217 15.4561 11.5338C15.4917 11.3459 15.5663 11.168 15.675 11.0123C15.5941 10.3714 15.6237 9.72088 15.7625 9.09045C15.9009 8.59409 16.1471 8.13627 16.4826 7.75129C16.8182 7.36631 17.2344 7.06416 17.7 6.86749C17.7786 6.25308 18.0717 5.68866 18.525 5.27874V5.08655C18.15 3.92061 19.1125 1.68483 19.4313 1.00577C19.4824 0.895765 19.563 0.802983 19.6638 0.738306C19.7645 0.673629 19.8812 0.639739 20 0.640611C20.1178 0.640953 20.2331 0.675414 20.3327 0.740021C20.4322 0.804628 20.5119 0.896751 20.5625 1.00577C20.875 1.69124 21.8125 3.92061 21.45 5.08655V5.22749C21.907 5.63799 22.2025 6.20504 22.2813 6.82264C22.7483 7.01812 23.166 7.31979 23.5027 7.70487C23.8394 8.08996 24.0864 8.5484 24.225 9.04561C24.3659 9.67584 24.3934 10.3271 24.3063 10.9675C24.4181 11.1216 24.4947 11.2994 24.5304 11.4879C24.5661 11.6765 24.56 11.8708 24.5125 12.0565C24.429 12.4125 24.3139 12.7599 24.1688 13.0944C23.9642 13.5703 23.8233 14.0724 23.75 14.587V14.9714C23.7125 15.3237 23.7125 15.3237 24.2875 15.785C24.4163 15.8907 24.4991 16.0443 24.5178 16.2123C24.5366 16.3803 24.4897 16.5491 24.3875 16.6819C24.3249 16.7657 24.2431 16.8323 24.1494 16.8759C24.0556 16.9195 23.9528 16.9387 23.85 16.9317Z" fill="white"/>
<path id="Vector_2" d="M10.7625 39.187H10.6938C9.11875 38.9948 7.8375 38.8219 7.35625 38.7386C6.64444 38.6003 5.99569 38.2289 5.50762 37.6801C5.01956 37.1313 4.71859 36.4349 4.65 35.6956C4.5219 34.97 4.61951 34.2215 4.92906 33.5559C5.23861 32.8903 5.74442 32.3413 6.375 31.9864C7.3705 31.5698 8.42647 31.3252 9.5 31.2625C9.21082 30.7448 9.10693 30.1398 9.20625 29.552L9.275 29.1356C9.4875 27.8864 9.9 25.2919 10.0688 23.4725C10.2875 20.8011 11.3188 18.924 12.8688 18.3475C13.615 18.084 14.377 17.87 15.15 17.7069C15.9124 17.5723 16.6542 17.3354 17.3563 17.0022C17.6375 16.81 17.6 16.2719 17.5375 15.9067C17.0482 15.6294 16.6387 15.2251 16.35 14.7344C16.2916 14.663 16.2491 14.5795 16.2254 14.4896C16.2016 14.3997 16.1973 14.3056 16.2128 14.2139C16.2282 14.1221 16.2629 14.0349 16.3145 13.9583C16.3662 13.8817 16.4335 13.8175 16.5118 13.7703C16.5901 13.7231 16.6775 13.6939 16.7679 13.6849C16.8584 13.6758 16.9496 13.6871 17.0353 13.7179C17.1211 13.7487 17.1992 13.7982 17.2644 13.8632C17.3295 13.9281 17.3801 14.0068 17.4125 14.0937C17.5904 14.3683 17.8363 14.5894 18.125 14.7344C18.2411 14.7496 18.3506 14.7979 18.4412 14.8737C18.5318 14.9496 18.5998 15.05 18.6375 15.1636C18.8813 15.9067 19.0375 17.3481 18.0125 18.0272C17.193 18.4568 16.314 18.755 15.4063 18.9112C14.686 19.0675 13.9762 19.2708 13.2813 19.5198C12.1875 19.9426 11.4563 21.4417 11.2875 23.5814C11.1375 25.4648 10.6938 28.0978 10.475 29.347L10.4063 29.757C10.3604 30.0662 10.4191 30.3822 10.5725 30.6526C10.726 30.9229 10.9651 31.1314 11.25 31.2433C11.3294 31.278 11.4015 31.328 11.4625 31.3906C11.5471 31.4821 11.6036 31.5972 11.6247 31.7214C11.6458 31.8456 11.6307 31.9734 11.5813 32.0889C11.5338 32.2037 11.4548 32.3018 11.3537 32.3712C11.2527 32.4406 11.1341 32.4783 11.0125 32.4797H10.9563C10.6 32.4797 8.21875 32.4797 6.93125 33.1203C6.543 33.3626 6.2362 33.7206 6.05191 34.1465C5.86761 34.5724 5.81461 35.0458 5.9 35.5034C5.94734 35.9664 6.13687 36.4019 6.44128 36.7473C6.74568 37.0927 7.14923 37.3301 7.59375 37.4253C8.0375 37.5022 9.31875 37.6751 10.85 37.8609C11.0158 37.8711 11.1708 37.9484 11.281 38.0757C11.3911 38.2031 11.4474 38.3701 11.4375 38.54C11.4276 38.7099 11.3522 38.8688 11.2279 38.9817C11.1037 39.0947 10.9408 39.1524 10.775 39.1422L10.7625 39.187Z" fill="white"/>
<path id="Vector_3" d="M11.3062 40.3594C10.9893 40.3602 10.684 40.2376 10.4519 40.0163C10.2198 39.7951 10.0784 39.4918 10.0562 39.1678C9.93749 37.9762 10.9687 36.5156 12.8375 36.2337C14.8578 36.0186 16.8875 35.9095 18.9187 35.907C20.1687 35.9903 22.6687 35.0294 24.4187 34.0748C25.1572 33.6845 25.9374 33.3835 26.7437 33.178C26.2116 32.9863 25.6374 32.953 25.0875 33.0819C22.6767 33.5104 20.2343 33.7247 17.7875 33.7225C15.4376 33.4865 13.1083 33.0711 10.8187 32.4797C10.653 32.4389 10.5098 32.3323 10.4207 32.1833C10.3316 32.0344 10.304 31.8552 10.3437 31.6853C10.3835 31.5154 10.4875 31.3687 10.6329 31.2773C10.7782 31.186 10.953 31.1577 11.1187 31.1984C13.3264 31.7702 15.572 32.1749 17.8375 32.4092C20.1939 32.4193 22.5466 32.2178 24.8687 31.807C26.5125 31.5059 27.8187 31.9672 28.65 33.1331C28.7156 33.2242 28.7566 33.3314 28.7687 33.4439C28.7808 33.5565 28.7635 33.6703 28.7187 33.7737C28.6781 33.8758 28.6125 33.9654 28.5282 34.0339C28.4438 34.1023 28.3437 34.1473 28.2375 34.1645C27.1243 34.362 26.0445 34.7223 25.0312 35.2344C23.6875 35.9775 20.6562 37.342 18.8562 37.2139C17.3812 37.1114 13.0562 37.5342 13.0125 37.5406C12.6833 37.5658 12.3657 37.6759 12.0892 37.8607C11.8128 38.0455 11.5864 38.299 11.4312 38.5976C11.3343 38.7607 11.303 38.9559 11.3437 39.1422C12.3562 39.0461 14.5437 38.7258 14.5687 38.7258H14.6312C20.1375 38.508 30.95 38.0211 32.425 37.7456C32.9084 37.6432 33.3422 37.372 33.6523 36.9783C33.9623 36.5845 34.1294 36.0927 34.125 35.5867C34.2 34.4976 33.75 33.415 33.15 33.21C31.7795 32.839 30.3771 32.6052 28.9625 32.5117C28.8223 32.5022 28.6893 32.4446 28.585 32.3481C28.4806 32.2517 28.4111 32.122 28.3875 31.98C28.3638 31.8373 28.388 31.6906 28.4561 31.5638C28.5242 31.437 28.6322 31.3376 28.7625 31.2817C29.043 31.1675 29.277 30.9586 29.4259 30.6895C29.5748 30.4204 29.6296 30.1072 29.5812 29.8019L29.5187 29.4239C29.3 28.1426 28.85 25.5097 28.7062 23.607C28.5375 21.4866 27.7937 19.9683 26.7062 19.5455C26.0097 19.3015 25.3002 19.0983 24.5812 18.9369C23.6766 18.7795 22.8001 18.4837 21.9812 18.0592C20.975 17.3801 21.125 15.9387 21.3562 15.1956C21.3893 15.0752 21.4561 14.9674 21.5483 14.8854C21.6405 14.8035 21.754 14.7509 21.875 14.7344C22.025 14.7344 22.3812 14.35 22.5937 14.0041C22.6372 13.9325 22.6941 13.8705 22.7609 13.8215C22.8278 13.7725 22.9035 13.7375 22.9836 13.7185C23.0637 13.6994 23.1466 13.6967 23.2277 13.7106C23.3088 13.7244 23.3865 13.7545 23.4562 13.7991C23.526 13.8436 23.5865 13.9019 23.6343 13.9704C23.6821 14.039 23.7163 14.1165 23.7349 14.1986C23.7534 14.2807 23.7561 14.3658 23.7426 14.4489C23.7291 14.532 23.6997 14.6116 23.6562 14.6831C23.3686 15.1637 22.9719 15.5659 22.5 15.8555C22.4312 16.2142 22.4 16.7587 22.6812 16.9509C23.3825 17.2805 24.1217 17.5173 24.8812 17.6556C25.6545 17.8179 26.4165 18.0319 27.1625 18.2962C28.7375 18.9369 29.7562 20.7947 29.9625 23.4533C30.1062 25.2919 30.55 27.8992 30.7625 29.1548L30.825 29.5392C30.9334 30.1557 30.8178 30.7915 30.5 31.3266C31.5357 31.444 32.5587 31.6584 33.5562 31.9672C34.7125 32.358 35.5 33.9403 35.3875 35.6444C35.3818 36.4384 35.1068 37.2057 34.6096 37.8146C34.1124 38.4236 33.424 38.8363 32.6625 38.982C30.7562 39.3408 15.7312 39.9366 14.725 39.975C14.4375 40.0198 12.4375 40.3017 11.4062 40.3722L11.3062 40.3594Z" fill="white"/>
<path id="Vector_4" d="M22.5375 31.5252H18.95C18.7843 31.5252 18.6253 31.4577 18.5081 31.3375C18.3909 31.2174 18.325 31.0544 18.325 30.8845C18.325 30.7146 18.3909 30.5517 18.5081 30.4315C18.6253 30.3114 18.7843 30.2439 18.95 30.2439H22.35L25.5813 28.0338L24.8688 24.4078C24.8374 24.2423 24.871 24.0707 24.9623 23.9304C25.0535 23.7901 25.1951 23.6923 25.3563 23.6583C25.4367 23.6414 25.5196 23.641 25.6002 23.657C25.6808 23.673 25.7575 23.7051 25.826 23.7515C25.8945 23.7979 25.9534 23.8577 25.9993 23.9275C26.0453 23.9972 26.0774 24.0755 26.0938 24.158L26.875 28.1875C26.896 28.3089 26.8824 28.4338 26.8359 28.5475C26.7893 28.6611 26.7118 28.7585 26.6125 28.8281L22.8625 31.3906C22.7689 31.4663 22.6561 31.513 22.5375 31.5252Z" fill="white"/>
<path id="Vector_5" d="M20.8563 31.5251H17.2688C17.1441 31.5254 17.0222 31.4875 16.9188 31.4162L13.1688 28.8537C13.0695 28.7842 12.992 28.6867 12.9454 28.5731C12.8989 28.4594 12.8853 28.3345 12.9063 28.2131L13.7 24.1708C13.7164 24.0883 13.7485 24.01 13.7945 23.9402C13.8404 23.8705 13.8993 23.8107 13.9678 23.7643C14.0363 23.7179 14.113 23.6858 14.1936 23.6698C14.2742 23.6538 14.3571 23.6542 14.4375 23.6711C14.5987 23.7051 14.7402 23.8029 14.8315 23.9432C14.9228 24.0835 14.9564 24.2551 14.925 24.4206L14.2125 28.0466L17.4438 30.2567H20.8438C21.0095 30.2567 21.1685 30.3242 21.2857 30.4443C21.4029 30.5645 21.4688 30.7274 21.4688 30.8973C21.4688 31.0672 21.4029 31.2302 21.2857 31.3503C21.1685 31.4705 21.0095 31.538 20.8438 31.538L20.8563 31.5251ZM20 11.0636C19.8893 11.0634 19.7806 11.033 19.685 10.9756C19.5895 10.9182 19.5105 10.8358 19.4563 10.7369C19.375 10.5959 18.5813 9.30827 16.6875 10.2372C16.5383 10.3098 16.367 10.3189 16.2113 10.2625C16.0555 10.206 15.9279 10.0887 15.8563 9.93609C15.785 9.78389 15.7752 9.60901 15.8291 9.44946C15.8829 9.28991 15.996 9.15859 16.1438 9.08406C17.95 8.19359 19.2688 8.73171 20.0063 9.42359C20.7438 8.73171 22.0563 8.19999 23.8625 9.08406C24.0134 9.15881 24.1291 9.29193 24.1841 9.45412C24.2392 9.61631 24.2292 9.79429 24.1563 9.9489C24.0833 10.1035 23.9535 10.2221 23.7952 10.2786C23.637 10.335 23.4634 10.3248 23.3125 10.25C21.4375 9.32109 20.625 10.6087 20.5438 10.7561C20.4871 10.8515 20.4072 10.93 20.3118 10.984C20.2164 11.0379 20.1089 11.0653 20 11.0636ZM24.6875 33.1459C24.5544 33.1446 24.4252 33.0997 24.3188 33.0178L22.1688 31.3906C22.0353 31.2895 21.9465 31.1382 21.9219 30.97C21.8973 30.8018 21.9389 30.6305 22.0375 30.4937C22.1362 30.357 22.2837 30.266 22.4478 30.2407C22.6119 30.2155 22.7791 30.2581 22.9125 30.3592L25.0563 31.9736C25.1224 32.0236 25.1783 32.0865 25.2207 32.1586C25.2631 32.2308 25.2912 32.3108 25.3034 32.3941C25.3156 32.4774 25.3116 32.5624 25.2917 32.6441C25.2719 32.7259 25.2364 32.8028 25.1875 32.8705C25.1313 32.9536 25.0567 33.0219 24.9698 33.0697C24.8829 33.1176 24.7862 33.1437 24.6875 33.1459ZM26.7688 33.1459C26.6293 33.1516 26.492 33.1093 26.3787 33.0257C26.2655 32.9421 26.1827 32.8221 26.1438 32.6847C26.1208 32.6039 26.1136 32.5193 26.1225 32.4357C26.1314 32.352 26.1563 32.271 26.1958 32.1973C26.2352 32.1235 26.2885 32.0584 26.3525 32.0058C26.4165 31.9531 26.49 31.9139 26.5688 31.8903L28.8 31.2176C28.9592 31.1701 29.1302 31.1892 29.2755 31.2709C29.4209 31.3526 29.5286 31.4902 29.575 31.6533C29.6214 31.8164 29.6027 31.9917 29.523 32.1407C29.4433 32.2897 29.3092 32.4001 29.15 32.4477L26.9438 33.1203C26.8866 33.1356 26.8279 33.1441 26.7688 33.1459ZM20.0313 19.2187H19.95C18.9159 19.147 17.9427 18.6915 17.2125 17.9375C17.1002 17.8133 17.0404 17.6485 17.0462 17.4792C17.0521 17.31 17.1231 17.15 17.2438 17.0342C17.365 16.9191 17.5257 16.8578 17.6908 16.8638C17.856 16.8698 18.0121 16.9426 18.125 17.0662C18.6302 17.5743 19.2943 17.8829 20 17.9375C20.3555 17.9223 20.7044 17.8346 21.0263 17.6795C21.3483 17.5244 21.6368 17.305 21.875 17.0342C21.9919 16.9136 22.1507 16.8455 22.3166 16.8449C22.4824 16.8443 22.6417 16.9112 22.7594 17.031C22.8771 17.1508 22.9435 17.3136 22.9441 17.4836C22.9447 17.6536 22.8794 17.8169 22.7625 17.9375C22.4129 18.3261 21.9914 18.6395 21.5225 18.8594C21.0536 19.0794 20.5467 19.2015 20.0313 19.2187Z" fill="white"/>
</g>
</svg>
